<svg width="62" height="76" viewBox="0 0 62 76" fill="none" xmlns="http://www.w3.org/2000/svg">
<path d="M60.6391 40.5373C56.8508 37.5284 53.8436 33.5254 52.7198 31.9341C52.4122 31.4985 51.9115 31.239 51.3764 31.239H35.2983C34.7633 31.239 34.2624 31.4985 33.955 31.9341C32.831 33.5254 29.8238 37.5284 26.0355 40.5373C21.2012 44.3769 30.1065 70.3678 39.2663 70.3678H47.4083C56.5681 70.3678 65.4734 44.3767 60.6391 40.5373Z" fill="url(#paint0_linear)"/>
<path d="M46.8246 67.5619H39.8505C32.0048 67.5619 24.3756 45.2986 28.5165 42.0094C29.2073 41.4601 29.8689 40.8728 30.4896 40.2755C30.4896 40.2743 30.4908 40.273 30.4908 40.273C30.5188 40.2477 30.5468 40.2211 30.5735 40.1932C30.5747 40.1932 30.5747 40.1919 30.5761 40.1919C31.5288 39.4376 36.8798 38.8579 43.3374 38.8579C49.795 38.8579 55.1459 39.4376 56.0986 40.1919C56.1 40.1919 56.1 40.1932 56.1012 40.1932C56.1279 40.2211 56.1559 40.2477 56.184 40.273C56.184 40.273 56.1852 40.2743 56.1852 40.2755C56.8062 40.8729 57.4676 41.4601 58.1584 42.0094C62.2994 45.2985 54.6701 67.5619 46.8246 67.5619Z" fill="url(#paint1_linear)"/>
<path d="M56.2504 40.4337C56.2504 41.3044 50.4695 42.0094 43.3376 42.0094C36.2057 42.0094 30.4248 41.3045 30.4248 40.4337C30.4248 40.3805 30.4464 40.3274 30.4897 40.2754C30.4897 40.2742 30.4909 40.2729 30.4909 40.2729C30.5138 40.2463 30.5404 40.2197 30.5735 40.1931C30.5748 40.1931 30.5748 40.1918 30.5761 40.1918C31.5289 39.4375 36.8798 38.8578 43.3375 38.8578C49.7951 38.8578 55.1459 39.4375 56.0988 40.1918C56.1002 40.1918 56.1002 40.1931 56.1013 40.1931C56.1344 40.2197 56.1612 40.2463 56.1841 40.2729C56.1841 40.2729 56.1853 40.2742 56.1853 40.2754C56.2289 40.3273 56.2504 40.3805 56.2504 40.4337Z" fill="url(#paint2_linear)"/>
<path d="M43.8018 41.087H42.8733C42.2473 41.087 41.7397 40.5822 41.7397 39.9593V30.4318H44.9354V39.9593C44.9354 40.5822 44.4279 41.087 43.8018 41.087Z" fill="url(#paint3_linear)"/>
<path d="M31.6767 48.5873L33.0612 57.9857C33.1327 58.4716 33.7261 58.8505 34.4589 58.8766C37.2918 58.9773 40.2675 59.031 43.3375 59.031C46.4076 59.031 49.3831 58.9773 52.2162 58.8766C52.9491 58.8504 53.5425 58.4716 53.6139 57.9857L54.9982 48.5873C55.0874 47.9825 54.3434 47.4672 53.4318 47.5043C50.2388 47.635 46.8499 47.7054 43.3375 47.7054C39.8251 47.7054 36.4361 47.635 33.2433 47.5043C32.3316 47.4672 31.5876 47.9824 31.6767 48.5873Z" fill="url(#paint4_linear)"/>
<path d="M55.1706 64.7199L28.5854 38.2723C27.789 39.0529 26.9346 39.8231 26.0355 40.5371C21.2012 44.3767 30.1065 70.3677 39.2664 70.3677H47.4083C50.1371 70.3677 52.8434 68.0606 55.1706 64.7199Z" fill="url(#paint5_linear)"/>
<path d="M28.8906 60.2429C31.6462 65.8169 35.4341 70.3678 39.2667 70.3678H47.4088C51.2414 70.3678 55.0292 65.8169 57.7849 60.2429H28.8906Z" fill="url(#paint6_linear)"/>
<path d="M60.6392 40.5373C56.8509 37.5285 53.8437 33.5255 52.7198 31.9341C52.4123 31.4985 51.9115 31.239 51.3765 31.239H35.2984C34.8068 31.239 34.3461 31.46 34.0356 31.8334L59.2582 56.9256C62.0353 49.9384 63.0601 42.4601 60.6392 40.5373Z" fill="url(#paint7_linear)"/>
<path d="M43.3375 59.031C45.3997 59.031 47.4181 59.0061 49.3805 58.9598L38.0122 47.6503C36.3822 47.6164 34.7893 47.5675 33.2432 47.5043C32.3316 47.4672 31.5877 47.9824 31.6767 48.5873L33.0611 57.9857C33.1327 58.4716 33.726 58.8505 34.4589 58.8766C37.2917 58.9773 40.2675 59.031 43.3375 59.031Z" fill="url(#paint8_linear)"/>
<path d="M60.6391 40.5373C56.8508 37.5285 53.8436 33.5255 52.7198 31.9341C52.4122 31.4985 51.9115 31.239 51.3764 31.239H40.3022C39.7672 31.239 39.2663 31.4985 38.9589 31.9341C37.8349 33.5254 34.8277 37.5284 31.0394 40.5373C26.2051 44.3769 35.1104 70.3679 44.2702 70.3679H47.4083C56.5681 70.3676 65.4734 44.3767 60.6391 40.5373Z" fill="url(#paint9_linear)"/>
<path d="M53.0503 30.6523C53.0959 31.5887 52.3615 32.3817 51.4195 32.4093C48.8104 32.4856 46.1071 32.5261 43.3375 32.5261C40.5677 32.5261 37.8645 32.4856 35.2554 32.4093C34.3134 32.3817 33.5789 31.5887 33.6246 30.6523L34.2136 18.5855L34.9157 4.20936C35.0308 1.85232 36.9854 0 39.3575 0H47.3177C49.6897 0 51.6443 1.85232 51.7594 4.20936L52.4613 18.5855L53.0503 30.6523Z" fill="url(#paint10_linear)"/>
<path d="M35.9642 46.1696C32.1759 43.1609 29.169 39.1578 28.0449 37.5664C27.7373 37.1308 27.2366 36.8713 26.7015 36.8713H10.6234C10.0884 36.8713 9.58767 37.1308 9.28012 37.5664C8.15618 39.1578 5.14909 43.1607 1.36073 46.1696C-3.47361 50.0091 5.43175 76.0001 14.5916 76.0001H22.7335C31.8933 76.0001 40.7987 50.0091 35.9642 46.1696Z" fill="url(#paint11_linear)"/>
<path d="M22.1493 73.1941H15.1752C7.3295 73.1941 -0.299708 50.931 3.84123 47.6416C4.53204 47.0924 5.19355 46.505 5.81432 45.9077C5.81432 45.9064 5.81571 45.9052 5.81571 45.9052C5.84372 45.8799 5.87174 45.8533 5.89836 45.8256C5.89975 45.8256 5.89975 45.8244 5.90091 45.8244C6.85376 45.0699 12.2046 44.4903 18.6622 44.4903C25.1199 44.4903 30.4707 45.0699 31.4236 45.8244C31.4247 45.8244 31.4247 45.8256 31.4261 45.8256C31.4527 45.8533 31.4808 45.8799 31.5088 45.9052C31.5088 45.9052 31.51 45.9064 31.51 45.9077C32.1309 46.5052 32.7924 47.0924 33.4831 47.6416C37.6243 50.931 29.995 73.1941 22.1493 73.1941Z" fill="url(#paint12_linear)"/>
<path d="M31.5751 46.0659C31.5751 46.9366 25.7943 47.6416 18.6623 47.6416C11.5304 47.6416 5.74951 46.9367 5.74951 46.0659C5.74951 46.0127 5.77116 45.9596 5.81445 45.9076C5.81445 45.9063 5.81572 45.9051 5.81572 45.9051C5.83864 45.8785 5.86538 45.8519 5.89848 45.8253C5.89976 45.8253 5.89976 45.8241 5.90103 45.8241C6.85389 45.0698 12.2047 44.4901 18.6623 44.4901C25.12 44.4901 30.4708 45.0698 31.4237 45.8241C31.4249 45.8241 31.4249 45.8253 31.4262 45.8253C31.4594 45.8519 31.486 45.8785 31.5089 45.9051C31.5089 45.9051 31.5102 45.9063 31.5102 45.9076C31.5536 45.9596 31.5751 46.0128 31.5751 46.0659Z" fill="url(#paint13_linear)"/>
<path d="M7.00136 54.2195L8.38586 63.6179C8.45739 64.1038 9.05073 64.4827 9.78355 64.5087C12.6164 64.6094 15.5921 64.6632 18.6622 64.6632C21.7323 64.6632 24.7077 64.6094 27.5409 64.5087C28.2738 64.4826 28.8671 64.1038 28.9385 63.6179L30.323 54.2195C30.4122 53.6147 29.6681 53.0993 28.7565 53.1365C25.5636 53.2671 22.1745 53.3376 18.6622 53.3376C15.1497 53.3376 11.7608 53.2671 8.56793 53.1365C7.65628 53.0995 6.91247 53.6147 7.00136 54.2195Z" fill="url(#paint14_linear)"/>
<path d="M19.127 46.7193H18.1985C17.5725 46.7193 17.0649 46.2145 17.0649 45.5917V36.0641H20.2606V45.5917C20.2606 46.2145 19.753 46.7193 19.127 46.7193Z" fill="url(#paint15_linear)"/>
<path d="M4.21533 65.8752C6.971 71.4493 10.7588 76 14.5914 76H22.7335C26.5661 76 30.354 71.4493 33.1096 65.8752H4.21533Z" fill="url(#paint16_linear)"/>
<path d="M35.9644 46.1696C32.1761 43.1607 29.1691 39.1579 28.0451 37.5664C27.7375 37.1308 27.2368 36.8713 26.7017 36.8713H10.6236C10.132 36.8713 9.67128 37.0923 9.36084 37.4657L34.5835 62.5579C37.3605 55.5707 38.3856 48.0924 35.9644 46.1696Z" fill="url(#paint17_linear)"/>
<path d="M35.9638 46.1696C32.1755 43.1607 29.1685 39.1579 28.0445 37.5664C27.7369 37.1308 27.2362 36.8713 26.7011 36.8713H15.6268C15.0918 36.8713 14.591 37.1308 14.2836 37.5664C13.1596 39.1578 10.1524 43.1607 6.36412 46.1696C1.52982 50.0091 10.4353 76.0001 19.5949 76.0001H22.733C31.8928 76.0001 40.7981 50.0091 35.9638 46.1696Z" fill="url(#paint18_linear)"/>
<path d="M28.375 36.2847C28.4206 37.221 27.6862 38.0141 26.7442 38.0416C24.1351 38.1181 21.4318 38.1585 18.6622 38.1585C15.8925 38.1585 13.1892 38.1181 10.5801 38.0416C9.63824 38.0141 8.90357 37.221 8.94929 36.2847L9.53846 24.2178L10.2404 9.84171C10.3554 7.48467 12.3099 5.63235 14.6821 5.63235H22.6421C25.0143 5.63235 26.9689 7.48467 27.084 9.84171L27.7859 24.2178L28.375 36.2847Z" fill="url(#paint19_linear)"/>
<defs>
<linearGradient id="paint0_linear" x1="32.1256" y1="42.3625" x2="60.1497" y2="61.3547" gradientUnits="userSpaceOnUse">
<stop stop-color="#F8F6FB"/>
<stop offset="1" stop-color="#EFDCFB"/>
</linearGradient>
<linearGradient id="paint1_linear" x1="26.5788" y1="35.5558" x2="61.0061" y2="66.7769" gradientUnits="userSpaceOnUse">
<stop stop-color="#CCCCCC"/>
<stop offset="0.2157" stop-color="white"/>
<stop offset="0.5613" stop-color="#CCCCCC"/>
<stop offset="0.8347" stop-color="#808080"/>
<stop offset="1"/>
</linearGradient>
<linearGradient id="paint2_linear" x1="42.787" y1="36.2003" x2="43.7105" y2="43.3732" gradientUnits="userSpaceOnUse">
<stop stop-color="#808080"/>
<stop offset="0.2157" stop-color="#CCCCCC"/>
<stop offset="0.5613" stop-color="white"/>
<stop offset="0.8347" stop-color="#808080"/>
<stop offset="1" stop-color="#120E21"/>
</linearGradient>
<linearGradient id="paint3_linear" x1="42.9425" y1="35.7594" x2="44.8399" y2="35.7594" gradientUnits="userSpaceOnUse">
<stop stop-color="#8A7889"/>
<stop offset="1" stop-color="#6E566E"/>
</linearGradient>
<linearGradient id="paint4_linear" x1="36.4567" y1="48.1107" x2="54.0164" y2="60.0111" gradientUnits="userSpaceOnUse">
<stop stop-color="#F8F6FB"/>
<stop offset="1" stop-color="#EFDCFB"/>
</linearGradient>
<linearGradient id="paint5_linear" x1="44.6296" y1="66.2664" x2="13.9736" y2="35.4508" gradientUnits="userSpaceOnUse">
<stop stop-color="#808080"/>
<stop offset="1" stop-color="#120E21"/>
</linearGradient>
<linearGradient id="paint6_linear" x1="43.3379" y1="66.1913" x2="43.3379" y2="71.9528" gradientUnits="userSpaceOnUse">
<stop stop-color="#EFDCFB" stop-opacity="0"/>
<stop offset="0.4856" stop-color="#BAAAD6" stop-opacity="0.486"/>
<stop offset="1" stop-color="#8679B2"/>
</linearGradient>
<linearGradient id="paint7_linear" x1="48.9919" y1="42.3115" x2="43.7014" y2="17.3258" gradientUnits="userSpaceOnUse">
<stop stop-color="#EFDCFB" stop-opacity="0"/>
<stop offset="0.4856" stop-color="#BAAAD6" stop-opacity="0.486"/>
<stop offset="1" stop-color="#8679B2"/>
</linearGradient>
<linearGradient id="paint8_linear" x1="49.0452" y1="66.3621" x2="15.7634" y2="32.9073" gradientUnits="userSpaceOnUse">
<stop stop-color="#EFDCFB" stop-opacity="0"/>
<stop offset="0.4856" stop-color="#BAAAD6" stop-opacity="0.486"/>
<stop offset="1" stop-color="#8679B2"/>
</linearGradient>
<linearGradient id="paint9_linear" x1="42.6165" y1="47.6883" x2="17.8486" y2="30.6939" gradientUnits="userSpaceOnUse">
<stop stop-color="white" stop-opacity="0"/>
<stop offset="1" stop-color="white"/>
</linearGradient>
<linearGradient id="paint10_linear" x1="37.6975" y1="16.2631" x2="50.7536" y2="16.2631" gradientUnits="userSpaceOnUse">
<stop stop-color="#8A7889"/>
<stop offset="0.3344" stop-color="#867385"/>
<stop offset="0.7039" stop-color="#7B667B"/>
<stop offset="1" stop-color="#6E566E"/>
</linearGradient>
<linearGradient id="paint11_linear" x1="7.45091" y1="47.9948" x2="35.4751" y2="66.9872" gradientUnits="userSpaceOnUse">
<stop stop-color="#F8F6FB"/>
<stop offset="1" stop-color="#EFDCFB"/>
</linearGradient>
<linearGradient id="paint12_linear" x1="8.47786" y1="50.0614" x2="32.4832" y2="66.3302" gradientUnits="userSpaceOnUse">
<stop stop-color="#FF819C"/>
<stop offset="0.2067" stop-color="#FE7898"/>
<stop offset="0.5484" stop-color="#FC5F8C"/>
<stop offset="0.9808" stop-color="#F8367A"/>
<stop offset="1" stop-color="#F83479"/>
</linearGradient>
<linearGradient id="paint13_linear" x1="18.1117" y1="41.8325" x2="19.0351" y2="49.0057" gradientUnits="userSpaceOnUse">
<stop stop-color="#FF819C"/>
<stop offset="0.2067" stop-color="#FE7898"/>
<stop offset="0.5484" stop-color="#FC5F8C"/>
<stop offset="0.9808" stop-color="#F8367A"/>
<stop offset="1" stop-color="#F83479"/>
</linearGradient>
<linearGradient id="paint14_linear" x1="11.7815" y1="53.7431" x2="29.341" y2="65.6434" gradientUnits="userSpaceOnUse">
<stop stop-color="#F8F6FB"/>
<stop offset="1" stop-color="#EFDCFB"/>
</linearGradient>
<linearGradient id="paint15_linear" x1="18.2677" y1="41.3917" x2="20.1651" y2="41.3917" gradientUnits="userSpaceOnUse">
<stop stop-color="#8A7889"/>
<stop offset="1" stop-color="#6E566E"/>
</linearGradient>
<linearGradient id="paint16_linear" x1="18.6625" y1="71.8236" x2="18.6625" y2="77.5851" gradientUnits="userSpaceOnUse">
<stop stop-color="#EFDCFB" stop-opacity="0"/>
<stop offset="0.4856" stop-color="#BAAAD6" stop-opacity="0.486"/>
<stop offset="1" stop-color="#8679B2"/>
</linearGradient>
<linearGradient id="paint17_linear" x1="24.3172" y1="47.9438" x2="19.0269" y2="22.958" gradientUnits="userSpaceOnUse">
<stop stop-color="#EFDCFB" stop-opacity="0"/>
<stop offset="0.4856" stop-color="#BAAAD6" stop-opacity="0.486"/>
<stop offset="1" stop-color="#8679B2"/>
</linearGradient>
<linearGradient id="paint18_linear" x1="17.9414" y1="53.3206" x2="-6.82678" y2="36.3262" gradientUnits="userSpaceOnUse">
<stop stop-color="white" stop-opacity="0"/>
<stop offset="1" stop-color="white"/>
</linearGradient>
<linearGradient id="paint19_linear" x1="13.0222" y1="21.8953" x2="26.0783" y2="21.8953" gradientUnits="userSpaceOnUse">
<stop stop-color="#8A7889"/>
<stop offset="0.3344" stop-color="#867385"/>
<stop offset="0.7039" stop-color="#7B667B"/>
<stop offset="1" stop-color="#6E566E"/>
</linearGradient>
</defs>
</svg>
